<?xml version="1.0" encoding="utf-8"?><svg xmlns="http://www.w3.org/2000/svg" xmlns:xlink="http://www.w3.org/1999/xlink"><symbol viewBox="0 0 8 16" id="facebook"><path d="M7.476 9l.415-2.896H5.297V4.225c0-.792.362-1.564 1.524-1.564H8V.196S6.93 0 5.907 0C3.77 0 2.374 1.387 2.374 3.897v2.207H0V9h2.374v7h2.923V9h2.179z"/></symbol><symbol viewBox="0 0 16 16" id="instagram"><path d="M8.002 3.898A4.095 4.095 0 003.9 8a4.095 4.095 0 004.102 4.102A4.095 4.095 0 0012.103 8a4.095 4.095 0 00-4.101-4.102zm0 6.769A2.671 2.671 0 015.335 8a2.67 2.67 0 012.667-2.667A2.67 2.67 0 0110.668 8c0 1.47-1.2 2.667-2.666 2.667zm5.225-6.937a.955.955 0 01-.956.957.957.957 0 11.957-.957zm2.717.971c-.06-1.282-.354-2.417-1.292-3.352C13.716.413 12.582.12 11.3.056c-1.32-.075-5.28-.075-6.6 0-1.278.06-2.413.354-3.352 1.29C.41 2.28.12 3.415.056 4.697c-.075 1.32-.075 5.28 0 6.6.06 1.283.354 2.418 1.292 3.353.94.936 2.07 1.229 3.352 1.293 1.32.075 5.28.075 6.6 0 1.281-.06 2.416-.354 3.352-1.293.935-.935 1.228-2.07 1.292-3.352.075-1.321.075-5.277 0-6.598zm-1.706 8.015a2.7 2.7 0 01-1.521 1.521c-1.053.418-3.552.321-4.715.321-1.164 0-3.666.093-4.715-.32a2.7 2.7 0 01-1.521-1.522C1.348 11.663 1.445 9.164 1.445 8c0-1.164-.093-3.667.321-4.716a2.7 2.7 0 011.52-1.521c1.054-.418 3.552-.322 4.716-.322 1.163 0 3.666-.092 4.715.322a2.7 2.7 0 011.52 1.52c.418 1.054.322 3.553.322 4.717 0 1.164.096 3.667-.321 4.716z"/></symbol><symbol viewBox="0 0 12 16" id="pinterest"><path d="M6.375 0C3.169 0 0 2.193 0 5.741c0 2.257 1.238 3.54 1.987 3.54.31 0 .488-.885.488-1.135 0-.298-.74-.933-.74-2.174 0-2.577 1.912-4.404 4.387-4.404 2.128 0 3.703 1.24 3.703 3.52 0 1.702-.666 4.895-2.822 4.895-.778 0-1.444-.577-1.444-1.404 0-1.212.825-2.386.825-3.636 0-2.122-2.934-1.737-2.934.827 0 .539.066 1.135.3 1.626-.431 1.904-1.313 4.74-1.313 6.703 0 .606.085 1.202.141 1.808.106.122.053.109.216.048 1.575-2.212 1.518-2.645 2.231-5.54.384.75 1.378 1.154 2.166 1.154C10.509 11.57 12 8.252 12 5.261 12 2.077 9.319 0 6.375 0z"/></symbol><symbol viewBox="0 0 16 12" id="twitter"><path d="M14.355 2.99c.01.132.01.263.01.394 0 4.003-3.299 8.616-9.33 8.616A9.833 9.833 0 010 10.64c.264.029.518.038.792.038a6.922 6.922 0 004.071-1.294c-1.442-.028-2.65-.9-3.066-2.1.203.028.406.047.62.047.294 0 .588-.037.862-.103C1.777 6.947.65 5.728.65 4.256V4.22c.437.225.945.365 1.483.384C1.249 4.06.67 3.131.67 2.081c0-.562.162-1.078.447-1.528 1.614 1.838 4.04 3.038 6.761 3.169a3.167 3.167 0 01-.081-.694C7.797 1.36 9.259 0 11.077 0c.943 0 1.796.366 2.395.956a6.79 6.79 0 002.081-.731c-.243.703-.761 1.294-1.441 1.669.66-.066 1.3-.235 1.888-.469a6.782 6.782 0 01-1.645 1.566z"/></symbol></svg>