<svg width="16" height="16" viewBox="0 0 16 16" fill="none" xmlns="http://www.w3.org/2000/svg">
<path d="M8.00178 3.89779C5.73162 3.89779 3.90049 5.72932 3.90049 7.99998C3.90049 10.2706 5.73162 12.1022 8.00178 12.1022C10.2719 12.1022 12.1031 10.2706 12.1031 7.99998C12.1031 5.72932 10.2719 3.89779 8.00178 3.89779ZM8.00178 10.6669C6.53475 10.6669 5.33541 9.47092 5.33541 7.99998C5.33541 6.52905 6.53117 5.33303 8.00178 5.33303C9.47238 5.33303 10.6682 6.52905 10.6682 7.99998C10.6682 9.47092 9.46882 10.6669 8.00178 10.6669ZM13.2275 3.73C13.2275 4.26195 12.7991 4.68681 12.2708 4.68681C11.739 4.68681 11.3142 4.25838 11.3142 3.73C11.3142 3.2016 11.7426 2.77317 12.2708 2.77317C12.7991 2.77317 13.2275 3.2016 13.2275 3.73ZM15.9437 4.70109C15.8831 3.41938 15.5904 2.28405 14.6516 1.34865C13.7164 0.413254 12.5813 0.120495 11.2999 0.0562314C9.97924 -0.0187438 6.02075 -0.0187438 4.70005 0.0562314C3.42219 0.116925 2.28711 0.409683 1.34835 1.34508C0.409596 2.28048 0.120469 3.41581 0.0562181 4.69752C-0.0187394 6.01851 -0.0187394 9.97789 0.0562181 11.2989C0.116899 12.5806 0.409596 13.7159 1.34835 14.6513C2.28711 15.5867 3.41863 15.8795 4.70005 15.9437C6.02075 16.0188 9.97924 16.0188 11.2999 15.9437C12.5813 15.8831 13.7164 15.5903 14.6516 14.6513C15.5869 13.7159 15.8796 12.5806 15.9437 11.2989C16.0188 9.97789 16.0188 6.02208 15.9437 4.70109ZM14.2376 12.7163C13.9591 13.416 13.4202 13.9551 12.717 14.2372C11.664 14.6549 9.16541 14.5584 8.00178 14.5584C6.83814 14.5584 4.33597 14.6513 3.28656 14.2372C2.58695 13.9587 2.04796 13.4196 1.76598 12.7163C1.34835 11.6631 1.44473 9.16388 1.44473 7.99998C1.44473 6.83609 1.35192 4.33336 1.76598 3.28372C2.04439 2.58395 2.58337 2.04485 3.28656 1.76279C4.33953 1.34508 6.83814 1.44148 8.00178 1.44148C9.16541 1.44148 11.6676 1.34865 12.717 1.76279C13.4166 2.04128 13.9556 2.58038 14.2376 3.28372C14.6552 4.33693 14.5589 6.83609 14.5589 7.99998C14.5589 9.16388 14.6552 11.6666 14.2376 12.7163Z" fill="black"/>
</svg>
