<svg width="12" height="16" viewBox="0 0 12 16" fill="none" xmlns="http://www.w3.org/2000/svg">
<path d="M6.37499 0C3.16875 0 0 2.19272 0 5.74145C0 7.99828 1.2375 9.28057 1.98749 9.28057C2.29687 9.28057 2.47499 8.39579 2.47499 8.14574C2.47499 7.84761 1.73437 7.21288 1.73437 5.97226C1.73437 3.39486 3.64687 1.5676 6.12187 1.5676C8.24999 1.5676 9.82497 2.80821 9.82497 5.08748C9.82497 6.78972 9.15937 9.98261 7.00311 9.98261C6.22499 9.98261 5.55936 9.40558 5.55936 8.57852C5.55936 7.36676 6.38436 6.19345 6.38436 4.94322C6.38436 2.82103 3.45 3.20572 3.45 5.7703C3.45 6.30887 3.51562 6.90512 3.75 7.3956C3.31875 9.2998 2.4375 12.1369 2.4375 14.0988C2.4375 14.7046 2.52187 15.301 2.57813 15.9068C2.68437 16.0286 2.63124 16.0158 2.79375 15.9549C4.36875 13.7429 4.31249 13.3101 5.02499 10.4153C5.40937 11.1655 6.40312 11.5694 7.19062 11.5694C10.5094 11.5694 12 8.25154 12 5.26059C12 2.07731 9.31874 0 6.37499 0Z" fill="black"/>
</svg>
