<svg width="16" height="12" viewBox="0 0 16 12" fill="none" xmlns="http://www.w3.org/2000/svg">
<path d="M14.3554 2.99061C14.3655 3.12185 14.3655 3.25312 14.3655 3.38436C14.3655 7.38746 11.0661 12 5.03555 12C3.17767 12 1.45179 11.5031 0 10.6406C0.26397 10.6687 0.517752 10.6781 0.791879 10.6781C2.32486 10.6781 3.73605 10.1999 4.86296 9.38437C3.42133 9.3562 2.21319 8.48436 1.79694 7.28435C2.00001 7.31246 2.20305 7.33122 2.41626 7.33122C2.71067 7.33122 3.00511 7.2937 3.2792 7.22811C1.77667 6.94684 0.649722 5.7281 0.649722 4.25623V4.21874C1.08626 4.44375 1.59392 4.58437 2.13195 4.60309C1.24869 4.05934 0.670034 3.13123 0.670034 2.08122C0.670034 1.51874 0.832442 1.00311 1.11672 0.553108C2.73095 2.39061 5.15737 3.59057 7.87817 3.72185C7.82742 3.49685 7.79694 3.2625 7.79694 3.02812C7.79694 1.35936 9.25889 0 11.0762 0C12.0203 0 12.8731 0.365623 13.4721 0.956243C14.2132 0.825004 14.9239 0.571863 15.5533 0.225001C15.3097 0.928143 14.7919 1.51876 14.1117 1.89373C14.7716 1.82814 15.4112 1.65936 16 1.42501C15.5534 2.02498 14.9949 2.55933 14.3554 2.99061Z" fill="black"/>
</svg>
