<?xml version="1.0" standalone="no"?>
<!DOCTYPE svg PUBLIC "-//W3C//DTD SVG 20010904//EN"
 "http://www.w3.org/TR/2001/REC-SVG-20010904/DTD/svg10.dtd">
<svg version="1.0" xmlns="http://www.w3.org/2000/svg"
 width="700.000000pt" height="700.000000pt" viewBox="0 0 700.000000 700.000000"
 preserveAspectRatio="xMidYMid meet">
<metadata>
Created by potrace 1.14, written by Peter Selinger 2001-2017
</metadata>
<g transform="translate(0.000000,700.000000) scale(0.100000,-0.100000)"
fill="#000000" stroke="none">
<path d="M3855 6987 c-3 -10 -58 -276 -71 -347 -2 -14 -14 -70 -25 -125 -11
-55 -23 -110 -25 -123 -3 -13 -15 -74 -29 -135 -13 -62 -27 -128 -30 -147 -3
-19 -16 -87 -30 -150 -13 -63 -36 -171 -49 -240 -14 -69 -33 -159 -42 -200 -9
-41 -17 -84 -19 -95 -1 -11 -22 -110 -45 -220 -23 -110 -44 -211 -46 -225 -11
-55 -103 -508 -113 -550 -5 -25 -12 -58 -15 -75 -3 -16 -14 -73 -25 -125 -46
-218 -183 -887 -187 -910 -2 -14 -9 -47 -15 -75 -6 -27 -13 -61 -15 -75 -3
-14 -16 -77 -30 -140 -14 -63 -27 -131 -30 -150 -3 -19 -15 -77 -26 -129 -11
-51 -21 -101 -23 -110 -2 -10 -20 -98 -40 -197 -20 -98 -39 -189 -41 -202 -3
-13 -15 -74 -29 -135 -13 -62 -26 -125 -29 -142 -2 -16 -10 -55 -16 -85 -6
-30 -14 -66 -16 -80 -3 -14 -16 -77 -29 -140 -50 -242 -94 -456 -99 -480 -2
-14 -14 -69 -25 -124 -12 -54 -23 -108 -25 -120 -2 -11 -12 -57 -21 -101 -22
-103 -24 -115 -30 -145 -4 -20 -44 -214 -61 -295 -15 -73 -25 -125 -30 -151
-2 -16 -7 -40 -9 -54 -6 -25 -5 -25 252 -88 142 -34 267 -64 278 -66 11 -3 48
-11 83 -19 47 -12 64 -13 67 -4 2 7 11 48 19 92 8 44 35 179 61 299 25 121 48
234 51 250 3 17 11 58 19 91 7 33 16 78 19 100 4 22 8 47 11 55 2 8 6 26 9 40
2 14 14 70 25 126 12 55 23 109 25 120 3 10 12 55 21 99 9 44 19 89 21 100 2
11 17 85 33 165 17 80 33 161 36 180 3 19 12 64 20 100 22 102 64 302 69 330
3 14 10 50 16 80 6 30 13 65 16 76 4 24 43 210 49 235 2 9 6 32 9 50 3 19 19
99 36 179 17 80 49 233 71 340 22 107 42 204 45 215 9 45 55 272 59 295 3 14
9 48 15 75 10 47 13 62 25 117 6 30 34 166 40 198 6 31 44 218 50 245 2 11 22
108 44 215 22 107 51 249 65 316 14 67 28 134 30 150 3 16 21 105 41 197 19
93 38 183 41 200 3 18 21 106 40 196 19 90 36 176 39 190 3 14 25 123 49 241
25 118 47 226 49 240 3 14 13 61 22 105 9 44 19 91 21 105 3 14 20 97 39 185
45 216 48 235 32 236 -16 1 -14 0 -232 54 -176 43 -375 90 -418 100 -10 2 -20
-2 -22 -8z"/>
<path d="M1805 5249 c-38 -34 -81 -71 -95 -83 -130 -111 -317 -273 -325 -282
-5 -6 -41 -37 -80 -70 -38 -32 -72 -61 -75 -64 -3 -3 -54 -48 -115 -100 -60
-52 -112 -97 -115 -100 -3 -3 -70 -62 -150 -130 -80 -69 -147 -127 -150 -130
-3 -3 -39 -34 -80 -70 -41 -36 -77 -67 -80 -70 -6 -6 -211 -183 -250 -216
-127 -108 -203 -182 -230 -225 -79 -128 -77 -298 3 -426 25 -40 97 -107 332
-308 39 -33 72 -62 75 -65 3 -3 39 -34 80 -70 41 -36 77 -67 80 -70 3 -3 34
-30 70 -60 36 -30 67 -57 70 -60 6 -6 138 -122 385 -335 94 -82 197 -171 230
-200 33 -29 148 -128 255 -221 107 -93 204 -177 215 -187 10 -9 22 -16 27 -15
6 3 144 184 188 249 8 12 20 27 25 33 6 6 35 45 65 86 29 41 78 107 107 147
l53 72 -97 83 c-53 46 -131 112 -172 147 -42 36 -78 67 -81 70 -5 6 -17 16
-150 131 -106 92 -243 211 -280 244 -19 17 -100 87 -180 156 -80 68 -147 127
-150 130 -3 3 -36 32 -75 65 -38 34 -105 91 -147 128 l-77 66 176 153 c255
221 353 307 393 342 19 17 66 58 105 91 60 52 162 140 270 234 17 15 66 58
110 96 44 38 85 74 91 80 12 11 34 29 139 119 39 33 82 71 96 85 l26 26 -214
290 c-117 160 -217 291 -221 292 -4 2 -38 -25 -77 -58z"/>
<path d="M4985 5134 c-72 -97 -152 -206 -179 -243 -26 -36 -66 -89 -87 -118
l-39 -52 138 -117 c75 -65 173 -150 217 -189 221 -193 231 -201 315 -273 85
-74 135 -117 140 -122 3 -3 55 -48 115 -100 61 -52 112 -97 115 -100 3 -3 70
-61 150 -130 80 -69 162 -140 182 -158 l37 -34 -118 -102 c-197 -169 -404
-349 -441 -382 -19 -17 -75 -66 -125 -108 -49 -43 -103 -90 -120 -105 -16 -15
-79 -69 -140 -121 -60 -52 -115 -99 -121 -105 -29 -26 -90 -79 -211 -184
l-132 -113 52 -72 c29 -39 127 -171 217 -293 90 -123 167 -223 170 -223 4 0
50 37 102 83 52 45 123 107 158 137 35 30 74 65 87 76 13 12 99 86 190 165 92
79 205 178 252 219 48 42 221 192 386 335 165 142 302 262 305 265 3 3 55 48
115 100 202 174 230 205 261 292 22 61 26 186 9 246 -34 115 -76 160 -410 443
-22 19 -42 36 -45 39 -4 4 -266 232 -560 486 -50 44 -296 257 -325 283 -17 14
-62 53 -100 86 -39 33 -72 62 -75 65 -32 33 -346 300 -351 300 -2 0 -63 -79
-134 -176z"/>
</g>
</svg>
