<svg width="260" height="260" viewBox="0 0 260 260" fill="none" xmlns="http://www.w3.org/2000/svg">
<path d="M69.8778 197.447L86.1271 175.416L33.8175 130.014L86.1271 84.6121L69.8778 62.5811L4.88087 118.999C3.35793 120.32 2.12848 121.996 1.28359 123.903C0.438694 125.81 0 127.898 0 130.014C0 132.13 0.438694 134.218 1.28359 136.125C2.12848 138.032 3.35793 139.708 4.88087 141.03L69.8778 197.447ZM190.122 62.5811L173.873 84.6121L226.182 130.014L173.873 175.416L190.122 197.447L255.119 141.03C256.642 139.708 257.871 138.032 258.716 136.125C259.561 134.218 260 132.13 260 130.014C260 127.898 259.561 125.81 258.716 123.903C257.871 121.996 256.642 120.32 255.119 118.999L190.122 62.5811ZM168.686 6.1213L116.689 260L91.3008 253.879L143.298 0L168.686 6.1213Z" fill="#00C4F0"/>
</svg>
